<svg xmlns="http://www.w3.org/2000/svg" viewBox="400 360 2440 20" stroke="currentColor" >
        <path fill-rule="evenodd"  transform="scale(2)" d="M357.1133 176.3893q-2.0392 7.101-6.5183 12.5268-4.479 5.4624-10.7425 8.9583-6.2634 3.5322-13.073 4.5154l1.4566-1.7115q1.4567-1.675 3.4595-4.661 1.9665-2.9862 4.0057-7.0647 2.0757-4.0785 3.241-8.8853 1.7115-7.1373.255-12.6725-1.4567-5.535-5.3532-9.1766-3.9328-3.6414-9.9413-5.2073-6.045-1.5658-13.4008-.7647-2.1486-2.4398-4.8433-4.661-2.6948-2.185-6.0814-3.86-3.3866-1.6752-7.465-2.622-4.115-.9832-8.9946-.9104-4.6612.0364-8.849.9104-4.1513.874-7.5743 2.4398-3.4594 1.5658-6.0813 3.7508-2.6218 2.2213-4.1877 4.9524-6.227-.9104-11.5436-.364-5.3166.546-9.4315 2.4397-4.115 1.8936-6.846 5.0253-2.7312 3.168-3.7144 7.465-1.1653 4.8433.255 9.6865 1.42 4.8797 5.4986 9.031 4.042 4.1513 10.7424 7.2466 6.7004 3.0954 16.0956 4.37 2.549-11.2523 8.849-17.7342 6.336-6.482 14.0197-9.4316 7.6837-2.9496 15.4766-2.9496 7.7928 0 13.328 1.748 4.916 1.5658 8.157 4.1513 3.241 2.5853 5.098 5.535 1.8937 2.9132 2.549 5.8628.692 2.9496.4735 5.2074-.437 4.1877-2.549 7.3923-2.0756 3.241-4.916 5.608-2.8404 2.367-5.9357 3.8963-3.1317 1.5295-5.5715 2.3306-4.0057 1.2745-8.5212 2.2578-4.479.9832-8.7396 1.675-4.2606.6555-7.902 1.0197-3.6052.3276-5.863.364-.0364 1.0925.437 2.7676.4734 1.7115 1.1653 3.3866.6555 1.675 1.3838 3.0225.7284 1.3837 1.2382 1.7843.4734.4006 3.3502-.0728 2.9132-.4734 6.1906-1.238 3.2774-.7284 5.9357-1.4203l2.6947-.6556-1.9664 4.8068q-1.93 4.8068-4.3698 10.524-2.44 5.7172-4.5884 10.4147-2.1485 4.734-2.5854 4.5154-8.0478-4.1877-13.2552-10.6332-5.2073-6.4455-8.2298-12.5268-3.0225-6.0814-4.1878-10.4512l-1.1652-4.3334-5.0982-.3278q-5.0617-.2913-12.2355-2.1485-7.1738-1.8935-15.003-5.972-7.793-4.0785-13.2916-11.653-3.2044-4.4426-4.9888-9.5407-1.8207-5.1345-2.3305-10.269-.51-5.0982.2184-9.8322.7285-4.6975 2.622-8.3026 3.605-6.9918 8.0842-11.9078 4.5155-4.916 9.8685-7.72 5.353-2.7676 11.6165-3.3502 6.2634-.619 13.4736 1.0924 3.059-4.0057 6.9917-6.664 3.9693-2.6947 8.3027-4.3334 4.3334-1.6022 8.8125-2.294 4.479-.692 8.594-.692 4.8796 0 9.468.692 4.5518.6918 8.703 2.3304 4.1515 1.6387 7.793 4.3335 3.678 2.6582 6.7368 6.6274 7.1374-1.6387 13.9834-.437 6.846 1.1653 12.5268 4.734 5.6443 3.605 9.6864 9.4315 4.042 5.79 5.5715 13.4736 1.6023 8.084-.4734 15.1487m-68.7154 7.8293q-2.7313 1.311-5.2075 3.4594-2.5127 2.112-4.479 4.989-1.9665 2.8767-2.804 6.2997 14.748-.0728 21.8855-3.0224 7.1374-2.9133 8.4483-6.1906 1.311-3.3138-2.3306-5.7172-3.605-2.4034-10.3783-1.4566-2.4034.3276-5.1345 1.6386"></path>

</svg>
